<svg width="65" height="65" viewBox="0 0 65 65" fill="none" xmlns="http://www.w3.org/2000/svg">
<path d="M25.1261 32.2685C25.1261 28.3223 28.3243 25.1224 32.2704 25.1224C36.2166 25.1224 39.4165 28.3223 39.4165 32.2685C39.4165 36.2147 36.2166 39.4145 32.2704 39.4145C28.3243 39.4145 25.1261 36.2147 25.1261 32.2685ZM21.2631 32.2685C21.2631 38.3479 26.1911 43.2759 32.2704 43.2759C38.3498 43.2759 43.2778 38.3479 43.2778 32.2685C43.2778 26.1891 38.3498 21.2611 32.2704 21.2611C26.1911 21.2611 21.2633 26.1888 21.2633 32.2685M41.1414 20.8247C41.1412 21.3334 41.2918 21.8308 41.5743 22.254C41.8568 22.6771 42.2584 23.007 42.7284 23.2019C43.1983 23.3968 43.7155 23.4479 44.2146 23.3489C44.7136 23.2498 45.1721 23.005 45.532 22.6454C45.8919 22.2858 46.137 21.8275 46.2365 21.3286C46.3359 20.8296 46.2852 20.3124 46.0907 19.8423C45.8962 19.3721 45.5666 18.9703 45.1437 18.6874C44.7208 18.4046 44.2235 18.2535 43.7148 18.2533H43.7137C43.0318 18.2537 42.3778 18.5246 41.8955 19.0068C41.4132 19.4889 41.142 20.1427 41.1414 20.8247ZM23.6101 49.7174C21.5201 49.6222 20.3842 49.2741 19.6293 48.98C18.6285 48.5904 17.9144 48.1263 17.1636 47.3766C16.4128 46.6268 15.948 45.9134 15.5601 44.9126C15.2658 44.158 14.9177 43.0217 14.8227 40.9317C14.7188 38.6722 14.698 37.9934 14.698 32.2688C14.698 26.5443 14.7205 25.8674 14.8227 23.6059C14.9179 21.516 15.2686 20.3819 15.5601 19.6251C15.9498 18.6243 16.4138 17.9102 17.1636 17.1594C17.9133 16.4086 18.6267 15.9439 19.6293 15.5559C20.3838 15.2617 21.5201 14.9135 23.6101 14.8185C25.8697 14.7146 26.5485 14.6939 32.2704 14.6939C37.9924 14.6939 38.6719 14.716 40.9333 14.8189C43.0233 14.914 44.1574 15.2647 44.9142 15.5563C45.915 15.9442 46.6291 16.41 47.3799 17.1597C48.1307 17.9095 48.5937 18.6246 48.9833 19.6254C49.2776 20.38 49.6257 21.5163 49.7208 23.6063C49.8247 25.8677 49.8454 26.5446 49.8454 32.2692C49.8454 37.9937 49.8247 38.6706 49.7208 40.9321C49.6256 43.022 49.2757 44.158 48.9833 44.9129C48.5937 45.9137 48.1297 46.6278 47.3799 47.3769C46.6301 48.126 45.915 48.5907 44.9142 48.9804C44.1596 49.2746 43.0233 49.6228 40.9333 49.7178C38.6738 49.8217 37.995 49.8424 32.2704 49.8424C26.5459 49.8424 25.869 49.8217 23.6101 49.7178M23.4326 10.9619C21.1506 11.0658 19.5912 11.4276 18.2294 11.9575C16.8199 12.5048 15.6251 13.2389 14.4321 14.4301C13.239 15.6213 12.5067 16.8162 11.9595 18.2274C11.4296 19.5901 11.0677 21.1486 10.9638 23.4307C10.8582 25.7163 10.834 26.447 10.834 32.2685C10.834 38.0899 10.8582 38.8207 10.9638 41.1063C11.0677 43.3885 11.4296 44.9469 11.9595 46.3095C12.5067 47.719 13.2392 48.9162 14.4321 50.1069C15.6249 51.2975 16.8182 52.0307 18.2294 52.5794C19.5938 53.1094 21.1506 53.4712 23.4326 53.5751C25.7195 53.6791 26.449 53.7049 32.2704 53.7049C38.0919 53.7049 38.8226 53.6808 41.1083 53.5751C43.3905 53.4712 44.9488 53.1094 46.3115 52.5794C47.721 52.0307 48.9158 51.2981 50.1088 50.1069C51.3019 48.9157 52.0326 47.719 52.5814 46.3095C53.1113 44.9469 53.4749 43.3884 53.5771 41.1063C53.681 38.819 53.7052 38.0899 53.7052 32.2685C53.7052 26.447 53.681 25.7163 53.5771 23.4307C53.4732 21.1485 53.1113 19.5893 52.5814 18.2274C52.0326 16.8179 51.3 15.6232 50.1088 14.4301C48.9177 13.237 47.721 12.5048 46.3132 11.9575C44.9488 11.4276 43.3903 11.0641 41.11 10.9619C38.824 10.8574 38.0936 10.832 32.273 10.832C26.4524 10.832 25.7203 10.8562 23.4335 10.9619" fill="#2856A6"/>
</svg>
